PathFileType	3	(X/Y/Z)	D:\Jess\Healthy\Labelled\HA01\20250317\SRRun01.trc
DataRate	CameraRate	NumFrames	NumMarkers	Units	OrigDataRate	OrigDataStartFrame	OrigNumFrames
250.0	250.0	4	37	mm	250.0	35312	2501
Frame#	Time	C7			T10			CLAV			LSHO			RSHO			LASIS			RASIS			LPSIS			RPSIS			LILCR			RILCR			LGTR			LTHI			LLTHI			LLEP			LMEP			LPSH			LLSH			LDSH			LLMAL			LMMAL			LTOE			L5TH			LHEE			RGTR			RTHI			RLTHI			RLEP			RMEP			RPSH			RLSH			RDSH			RLMAL			RMMAL			RTOE			R5TH			RHEE			
		X1	Y1	Z1	X2	Y2	Z2	X3	Y3	Z3	X4	Y4	Z4	X5	Y5	Z5	X6	Y6	Z6	X7	Y7	Z7	X8	Y8	Z8	X9	Y9	Z9	X10	Y10	Z10	X11	Y11	Z11	X12	Y12	Z12	X13	Y13	Z13	X14	Y14	Z14	X15	Y15	Z15	X16	Y16	Z16	X17	Y17	Z17	X18	Y18	Z18	X19	Y19	Z19	X20	Y20	Z20	X21	Y21	Z21	X22	Y22	Z22	X23	Y23	Z23	X24	Y24	Z24	X25	Y25	Z25	X26	Y26	Z26	X27	Y27	Z27	X28	Y28	Z28	X29	Y29	Z29	X30	Y30	Z30	X31	Y31	Z31	X32	Y32	Z32	X33	Y33	Z33	X34	Y34	Z34	X35	Y35	Z35	X36	Y36	Z36	X37	Y37	Z37	

313	141.244	1067.609665263338	1499.904420285323	-352.5642890909402	977.8069315516966	1279.731396745615	-352.7671619445568	1197.171449482704	1395.781257734898	-353.4205672467087	1134.077440087547	1465.204270035417	-200.3635152329057	1142.750912249329	1471.016626165024	-500.7968210890581	1170.186819097416	976.981651927037	-475.6037615513006	1184.165296263568	961.7797731050935	-223.7352250744195	977.4105858649475	1033.912519420542	-367.1887602589691	981.0420770428001	1030.80761400388	-315.8765411960191	1083.995189585034	1048.299957217603	-527.5843657048772	1108.481636181186	1038.622207625917	-162.8546164759104	1092.090675482398	892.7539056579719	-548.4225772177469	1181.643219370738	746.3145040071589	-465.2161820050123	1068.783140705081	636.9633195346048	-507.3297641329745	1053.316082366626	491.5292689676318	-483.6974764264845	nan	nan	nan	1067.564686618711	388.6347398078438	-421.0394060603501	927.8677684808583	311.7229112208818	-463.2783519107955	931.5395633037799	212.0275211566962	-401.8104092828567	822.3628630810668	155.4889713891428	-419.8278742099467	nan	nan	nan	936.2563122590956	59.87945591376707	-426.9423829146962	884.0735008433588	44.31537896968831	-466.5584913705063	744.061377206976	146.1474660260716	-362.166381049266	1110.872295344283	871.0328926728488	-147.2508061074732	1263.91099034587	797.6537294666032	-256.448234005726	1244.171494353128	672.955658304139	-175.6082030724746	1284.67578323475	537.6709910955584	-196.0732175854274	nan	nan	nan	1266.567156870395	431.3811182961788	-252.0710008202385	1131.886579496382	423.0047561193812	-199.8151833062105	1095.598908784965	304.0589053635114	-251.419607057168	994.2951539070754	275.2206750118585	-224.0331825785907	nan	nan	nan	1023.07408731415	129.0649251171496	-234.2289078247777	981.8971374362231	143.4134837316046	-191.7825471929843	921.7978025546354	318.6376440638796	-281.2438783409435	
314	141.248	1067.768103650977	1502.809824546643	-352.8937991150348	978.1937458012413	1282.58353087684	-354.5154320003049	1197.331243116801	1399.26364665761	-352.0116205232977	1131.626680386926	1468.511027407151	-199.6925526957642	1144.448417288848	1474.320682871798	-500.0981907927363	1171.892272366889	978.3718379005212	-474.3045501579245	1183.66397281165	965.1674777343932	-222.2781697495781	978.332151417875	1036.952530959776	-368.3830838211566	981.2960647629366	1033.875496620405	-316.6035609210476	1087.469462586221	1050.332135748327	-527.1011361344458	1107.872109313815	1042.494471041333	-162.4826051772419	1093.1392908133	894.6380316597047	-547.5900461942783	1179.313833435268	746.9800826025598	-463.5414101924724	1064.032929549287	639.4385175629139	-506.7387275327477	1046.172625578303	494.4225921916104	-483.6424019340018	nan	nan	nan	1059.261503837927	390.9862688291065	-420.859098398484	919.4940989082521	314.9226476939032	-463.6723377253216	922.8376783141618	214.7160562825512	-402.5393145482211	813.6467487806906	158.1591482984086	-420.7954452506316	nan	nan	nan	925.2594443700061	60.02437361563848	-427.1708468137374	872.8825146221469	44.89791422162592	-466.5938462322031	735.542820076866	150.6228707547158	-363.0490698045292	1109.729836114856	875.1466640345916	-145.9527128385477	1263.737790787807	803.1600328592823	-254.4103677292827	1245.186732767865	677.5330732475752	-175.253034607762	1286.51546061236	542.6237143136467	-196.1651826571761	nan	nan	nan	1271.693133132725	435.1775778515649	-251.9807352087149	1137.288890453164	421.680884186674	-199.9554169455964	1105.514068207376	301.5820239607169	-251.8172331863386	1005.119541971617	268.656472800696	-224.6593136718011	nan	nan	nan	1039.677357930017	123.7494402952607	-234.9682604745678	997.6747171284507	136.2307281189212	-192.7419118381805	931.2984777680196	309.3669405725907	-282.1126128924516	
315	141.252	1067.951426212383	1505.763285843483	-353.2044421861948	978.631481863872	1285.480948918072	-356.2459605181363	1197.491551130624	1402.79090344962	-350.5896321833248	1129.229694419994	1471.830302187	-199.0781371325104	1146.133518233587	1477.63987243459	-499.358104321229	1173.634972778523	979.7390857006015	-473.0507133716773	1183.261405117773	968.6383799120665	-220.9069698765863	979.3581958069603	1040.04268167978	-369.5609692305408	981.6376178924397	1036.986407043604	-317.2989771018176	1091.082122737585	1052.340527373934	-526.5710703105302	1107.401244217014	1046.455271309801	-162.124628425789	1094.150235193122	896.5774528246789	-546.7286469702237	1177.075707275867	747.7700013114232	-461.8722362184325	1059.417617486482	642.0446533055136	-506.1293018270379	1039.118529909545	497.5566827806414	-483.5931246040159	nan	nan	nan	1051.057058155672	393.5578379084591	-420.7525051183252	911.2314529781388	318.3164580130476	-464.0954876470588	914.3652023208377	217.5595365562209	-403.3617053795487	805.218623772303	160.9100205329126	-421.8163937925768	nan	nan	nan	914.3823859331952	60.1941980266573	-427.4193469791634	861.7992676232776	45.55414202451912	-466.6399163737166	727.3617981940771	155.2893723061004	-363.9707837924007	1108.816413977768	879.4565742426438	-144.6721923234639	1263.497350993858	808.6438308357242	-252.4651087996604	1245.975931774966	682.0367353711598	-174.9447251801709	1287.969186549382	547.4739559971409	-196.2741930346385	nan	nan	nan	1276.575324091122	438.9229133136395	-251.8046086674374	1142.577348849482	420.2648291180235	-200.1310945775045	1115.51191666442	299.1296189367056	-252.1711302322155	1016.176938576046	262.0821722522968	-225.3174055498261	nan	nan	nan	1056.558590775667	118.6670540261212	-235.6179943153695	1013.755129371599	129.2262644906061	-193.6675960561275	941.1733825351911	299.9673535753882	-283.1060367688727	
316	141.256	1068.161096311682	1508.745609489158	-353.4955956757647	979.1190485272149	1288.402962160258	-357.9569178834499	1197.650392508125	1406.343189771817	-349.1575774211923	1126.88966867333	1475.140336496755	-198.5238060837992	1147.80621305418	1480.956376121078	-498.5785424910966	1175.407847203186	981.0942327486387	-471.8300769278512	1182.95471290764	972.1987138886416	-219.623964710361	980.4771048433199	1043.169437630672	-370.7198481416219	982.0611011338647	1040.126916087671	-317.9673036055946	1094.824611022009	1054.319173665572	-525.9875391456255	1107.046542739962	1050.503352910207	-161.7741559342377	1095.126518089635	898.557796959517	-545.8385217011662	1174.934081713039	748.6630177624568	-460.2226259219289	1054.947275132261	644.7673708019917	-505.4995294792102	1032.144396509428	500.913528499648	-483.5375585466378	nan	nan	nan	1042.965745339897	396.3324967888485	-420.7260625031277	903.0835345704401	321.8898504126421	-464.5400074125856	906.133401568762	220.544890567871	-404.2746407386197	797.0951589279362	163.7373210284471	-422.8888468259834	nan	nan	nan	903.6411660569538	60.389601058152	-427.6844300739804	850.8442508341354	46.29594639172536	-466.6994550906345	719.5344363063223	160.1410501864055	-364.9397669441332	1108.122063006678	883.9442894217175	-143.4128662089559	1263.20949841004	814.0864570791989	-250.6270963779803	1246.540446403375	686.4456218842832	-174.6878513999958	1289.044344103086	552.178633137419	-196.3975186494716	nan	nan	nan	1281.211797471198	442.5896903973554	-251.5415710306254	1147.759898235948	418.7455442381028	-200.3351045075793	1125.58395923964	296.7072929758358	-252.4747098855571	1027.465361507217	255.5217909907196	-225.9982604866871	nan	nan	nan	1073.698121096159	113.8515152058295	-236.1730175068163	1030.125312560243	122.4356402033372	-194.5517603979475	951.4278093377486	290.4756256520042	-284.2103512648968	
